# xmcd
#
# Track frame offsets: 
#        150
#        12605
#        25927
#        40142
#        55692
#        69085
#        81095
#        96390
#        111535
#        126570
#        151600
#        162627
#        169700
#        176642
#        187592
#        206245
#        217855
#        225765
#        242390
#
# Disc length: 4426 seconds
#
# Revision: 1
# Processed by: cddbd v1.5.1PL0 Copyright (c) Steve Scherf et al.
# Submitted via: ExactAudioCopy v0.90b4
#
DISCID=f2114813
DTITLE=Jan Akkerman - A Talent's Profile
DYEAR=1988
DGENRE=Rock
TTITLE0=Bags Groove
TTITLE1=Revival Of The Cat
TTITLE2=Moonbeam
TTITLE3=Mercy, Mercy, Mercy
TTITLE4=On The Green Light
TTITLE5=What'd I Say
TTITLE6=Slim Jenkin's Place
TTITLE7=Hineimatov
TTITLE8=Green Onions
TTITLE9=Ode To Billy Joe
TTITLE10=Comin' Home baby
TTITLE11=Kemps Jig
TTITLE12=Etude
TTITLE13=Blue Boy
TTITLE14=Andante Sostenuto
TTITLE15=Maybe Just A Dream
TTITLE16=Minstrel - Farmers Dance
TTITLE17=Stick
TTITLE18=Fresh Air
EXTD=
EXTT0=
EXTT1=
EXTT2=
EXTT3=
EXTT4=
EXTT5=
EXTT6=
EXTT7=
EXTT8=
EXTT9=
EXTT10=
EXTT11=
EXTT12=
EXTT13=
EXTT14=
EXTT15=
EXTT16=
EXTT17=
EXTT18=
PLAYORDER=
